# xmcd
#
# Track frame offsets:
#	150
#	9313
#	18583
#	30830
#	42353
#	54205
#	65399
#	76311
#	86211
#	97123
#	115983
#	126824
#	138723
#	149015
#	161097
#	171277
#	180736
#	191857
#	205852
#	222337
#	235269
#	255735
#	266628
#	281228
#	293003
#	305229
#	318612
#
# Disc length: 4507 seconds
#
# Revision: 0
# Processed by: cddbd v1.4PL0 Copyright (c) Steve Scherf et al.
# Submitted via: audiograbber 1.80.04
#
DISCID=a011991b
DTITLE=Elvis Presley - The Country Side Of Elvis CD1
DYEAR=1900
DGENRE=
TTITLE0=It Wouldnt Be The Same Without You
TTITLE1=Blue Moon Of Kentucky
TTITLE2=I Love You Because
TTITLE3=Just Because
TTITLE4=Im Left Your Right Shes Gone
TTITLE5=I Forgot To Remember To Forget
TTITLE6=Im Counting On You
TTITLE7=How Do You Think I Feel
TTITLE8=Hows The World Treating You
TTITLE9=Old Shep
TTITLE10=Your Cheatin Heart
TTITLE11=A Fool Such As I
TTITLE12=Theres Always Me
TTITLE13=Its A Sin
TTITLE14=Guitar Man
TTITLE15=Just Call Me Lonesome
TTITLE16=You Dont Know Me
TTITLE17=After Loving You
TTITLE18=Long Black Limousine
TTITLE19=Im Movin
TTITLE20=Ill Hold You In My Heart
TTITLE21=From A Jack To A King
TTITLE22=Kentucky Rain
TTITLE23=It Keeps Right On A Hurtin
TTITLE24=If Im A Fool For Loving You
TTITLE25=Release Me
TTITLE26=Funny How Time Slips Away
EXTD=
EXTT0=
EXTT1=
EXTT2=
EXTT3=
EXTT4=
EXTT5=
EXTT6=
EXTT7=
EXTT8=
EXTT9=
EXTT10=
EXTT11=
EXTT12=
EXTT13=
EXTT14=
EXTT15=
EXTT16=
EXTT17=
EXTT18=
EXTT19=
EXTT20=
EXTT21=
EXTT22=
EXTT23=
EXTT24=
EXTT25=
EXTT26=
PLAYORDER=
